<svg width="500" height="452" viewBox="0 0 500 452" fill="none" xmlns="http://www.w3.org/2000/svg">
<mask id="mask0_2402_228" style="mask-type:luminance" maskUnits="userSpaceOnUse" x="0" y="30" width="500" height="404">
<path d="M500 30H0V434H500V30Z" fill="white"/>
</mask>
<g mask="url(#mask0_2402_228)">
<g opacity="0.1">
<path d="M25.5 5.97339H24.5V458.028H25.5V5.97339Z" fill="#FCD7FF"/>
<path d="M55.5 5.97339H54.5V458.028H55.5V5.97339Z" fill="#FCD7FF"/>
<path d="M85.5 5.97339H84.5V458.028H85.5V5.97339Z" fill="#FCD7FF"/>
<path d="M115.5 5.97339H114.5V458.028H115.5V5.97339Z" fill="#FCD7FF"/>
<path d="M145.5 5.97339H144.5V458.028H145.5V5.97339Z" fill="#FCD7FF"/>
<path d="M175.5 5.97339H174.5V458.028H175.5V5.97339Z" fill="#FCD7FF"/>
<path d="M205.5 5.97339H204.5V458.028H205.5V5.97339Z" fill="#FCD7FF"/>
<path d="M235.5 5.97339H234.5V458.028H235.5V5.97339Z" fill="#FCD7FF"/>
<path d="M265.5 5.97339H264.5V458.028H265.5V5.97339Z" fill="#FCD7FF"/>
<path d="M295.5 5.97339H294.5V458.028H295.5V5.97339Z" fill="#FCD7FF"/>
<path d="M325.5 5.97339H324.5V458.028H325.5V5.97339Z" fill="#FCD7FF"/>
<path d="M355.5 5.97339H354.5V458.028H355.5V5.97339Z" fill="#FCD7FF"/>
<path d="M385.5 5.97339H384.5V458.028H385.5V5.97339Z" fill="#FCD7FF"/>
<path d="M415.5 5.97339H414.5V458.028H415.5V5.97339Z" fill="#FCD7FF"/>
<path d="M445.5 5.97339H444.5V458.028H445.5V5.97339Z" fill="#FCD7FF"/>
<path d="M475.5 5.97339H474.5V458.028H475.5V5.97339Z" fill="#FCD7FF"/>
<path d="M529.737 49.796H-29.736V50.604H529.737V49.796Z" fill="#FCD7FF"/>
<path d="M529.737 74.036H-29.736V74.844H529.737V74.036Z" fill="#FCD7FF"/>
<path d="M529.737 98.276H-29.736V99.084H529.737V98.276Z" fill="#FCD7FF"/>
<path d="M529.737 122.516H-29.736V123.324H529.737V122.516Z" fill="#FCD7FF"/>
<path d="M529.737 146.756H-29.736V147.564H529.737V146.756Z" fill="#FCD7FF"/>
<path d="M529.737 170.996H-29.736V171.804H529.737V170.996Z" fill="#FCD7FF"/>
<path d="M529.737 195.236H-29.736V196.044H529.737V195.236Z" fill="#FCD7FF"/>
<path d="M529.737 219.476H-29.736V220.284H529.737V219.476Z" fill="#FCD7FF"/>
<path d="M529.737 243.716H-29.736V244.524H529.737V243.716Z" fill="#FCD7FF"/>
<path d="M529.737 267.956H-29.736V268.764H529.737V267.956Z" fill="#FCD7FF"/>
<path d="M529.737 292.196H-29.736V293.004H529.737V292.196Z" fill="#FCD7FF"/>
<path d="M529.737 316.436H-29.736V317.244H529.737V316.436Z" fill="#FCD7FF"/>
<path d="M529.737 340.676H-29.736V341.484H529.737V340.676Z" fill="#FCD7FF"/>
<path d="M529.737 364.916H-29.736V365.724H529.737V364.916Z" fill="#FCD7FF"/>
<path d="M529.737 389.156H-29.736V389.964H529.737V389.156Z" fill="#FCD7FF"/>
<path d="M529.737 413.396H-29.736V414.204H529.737V413.396Z" fill="#FCD7FF"/>
</g>
</g>
<path d="M250.988 349.08C243.509 349.08 235.286 347.211 235.286 347.211C212.482 337.865 189.304 310.574 189.304 310.574C174.724 290.761 163.883 265.339 163.883 247.395C163.883 229.45 161.64 214.87 161.64 191.318C161.64 167.766 159.397 150.195 178.837 128.512C198.276 106.829 248.371 104.213 248.371 104.213H251.663" stroke="#67E2EF" stroke-width="1.5" stroke-miterlimit="10"/>
<path d="M187.434 205.151L210.986 195.805L237.154 207.021L212.294 213.376L187.434 205.151Z" stroke="#67E2EF" stroke-width="1.5" stroke-miterlimit="10"/>
<path d="M249.601 219.343L240.894 231.805L237.154 265.339L225.192 272.443V282.911H250.28" stroke="#67E2EF" stroke-width="1.5" stroke-miterlimit="10"/>
<path d="M250.28 303.098L243.137 300.107L219.211 309.453L234.746 318.051H250.654" stroke="#67E2EF" stroke-width="1.5" stroke-miterlimit="10"/>
<path d="M241.807 232.12L237.154 207.021L249.045 167.39L216.289 109.345L196.121 167.153" stroke="#67E2EF" stroke-width="1.5" stroke-miterlimit="10"/>
<path d="M161.789 201.844L177.104 130.501L210.986 195.805L234.933 142.382" stroke="#67E2EF" stroke-width="1.5" stroke-miterlimit="10"/>
<path d="M250.016 104.328L234.933 142.382L196.121 167.153L161.56 202.908L187.434 205.151" stroke="#67E2EF" stroke-width="1.5" stroke-miterlimit="10"/>
<path d="M225.192 272.443L212.294 213.376L166.179 263.55L225.192 272.443Z" stroke="#67E2EF" stroke-width="1.5" stroke-miterlimit="10"/>
<path d="M219.211 309.453L190.551 311.999L225.192 282.911L219.763 309.453" stroke="#67E2EF" stroke-width="1.5" stroke-miterlimit="10"/>
<path d="M234.746 318.051L235.286 347.211L219.763 309.453H250.654" stroke="#67E2EF" stroke-width="1.5" stroke-miterlimit="10"/>
<path d="M251.663 104.214C251.663 104.214 301.757 106.831 321.197 128.513C340.636 150.196 338.393 167.766 338.393 191.319C338.393 214.871 336.15 229.45 336.15 247.396C336.15 265.339 325.31 290.761 310.728 310.575C310.728 310.575 287.55 337.866 264.747 347.212C264.747 347.212 256.523 349.081 249.045 349.081" stroke="#67E2EF" stroke-width="1.5" stroke-miterlimit="10"/>
<path d="M312.597 205.151L289.046 195.805L262.877 207.021L287.737 213.376L312.597 205.151Z" stroke="#67E2EF" stroke-width="1.5" stroke-miterlimit="10"/>
<path d="M250.431 219.343L259.138 231.805L262.877 265.339L274.839 272.443V282.911H249.752" stroke="#67E2EF" stroke-width="1.5" stroke-miterlimit="10"/>
<path d="M249.752 303.098L256.895 300.107L280.822 309.453L265.287 318.051H249.376" stroke="#67E2EF" stroke-width="1.5" stroke-miterlimit="10"/>
<path d="M259.138 231.805L262.877 207.021L250.988 167.39L283.743 109.345L300.436 167.155" stroke="#67E2EF" stroke-width="1.5" stroke-miterlimit="10"/>
<path d="M289.046 195.805L322.926 130.501L336.674 203.462" stroke="#67E2EF" stroke-width="1.5" stroke-miterlimit="10"/>
<path d="M312.597 205.151L338.472 202.908L303.91 167.153L265.1 142.382L250.016 104.328" stroke="#67E2EF" stroke-width="1.5" stroke-miterlimit="10"/>
<path d="M274.839 272.443L287.737 213.376L333.852 263.55L274.839 272.443Z" stroke="#67E2EF" stroke-width="1.5" stroke-miterlimit="10"/>
<path d="M280.822 309.453L309.48 311.999L274.839 282.911L280.268 309.453H249.376" stroke="#67E2EF" stroke-width="1.5" stroke-miterlimit="10"/>
<path d="M265.287 318.051L264.747 347.211L280.268 309.453" stroke="#67E2EF" stroke-width="1.5" stroke-miterlimit="10"/>
<path d="M219.596 109.345C219.596 107.519 218.115 106.039 216.287 106.039C214.462 106.039 212.982 107.519 212.982 109.345C212.982 111.171 214.462 112.653 216.287 112.653C218.115 112.652 219.596 111.171 219.596 109.345Z" fill="#67E2EF"/>
<path d="M177.103 127.194C175.278 127.194 173.797 128.675 173.797 130.501C173.797 132.327 175.278 133.808 177.103 133.808C178.931 133.808 180.411 132.327 180.411 130.501C180.411 128.675 178.931 127.194 177.103 127.194Z" fill="#67E2EF"/>
<path d="M234.932 145.689C236.759 145.689 238.24 144.209 238.24 142.381C238.24 140.556 236.759 139.075 234.932 139.075C233.107 139.075 231.626 140.555 231.626 142.381C231.626 144.209 233.107 145.689 234.932 145.689Z" fill="#67E2EF"/>
<path d="M195.801 163.849C193.976 163.849 192.496 165.329 192.496 167.156C192.496 168.982 193.976 170.463 195.801 170.463C197.629 170.463 199.109 168.983 199.109 167.156C199.109 165.329 197.629 163.849 195.801 163.849Z" fill="#67E2EF"/>
<path d="M164.867 202.665C164.867 200.839 163.387 199.359 161.559 199.359C159.734 199.359 158.253 200.839 158.253 202.665C158.253 204.491 159.734 205.972 161.559 205.972C163.386 205.971 164.867 204.49 164.867 202.665Z" fill="#67E2EF"/>
<path d="M214.293 195.12C214.293 193.294 212.813 191.813 210.985 191.813C209.16 191.813 207.679 193.293 207.679 195.12C207.679 196.945 209.159 198.426 210.985 198.426C212.813 198.426 214.293 196.945 214.293 195.12Z" fill="#67E2EF"/>
<path d="M191.756 205.151C191.756 203.325 190.276 201.844 188.447 201.844C186.622 201.844 185.142 203.324 185.142 205.151C185.142 206.977 186.622 208.458 188.447 208.458C190.275 208.457 191.756 206.977 191.756 205.151Z" fill="#67E2EF"/>
<path d="M212.293 210.069C210.468 210.069 208.988 211.549 208.988 213.376C208.988 215.202 210.468 216.682 212.293 216.682C214.121 216.682 215.601 215.202 215.601 213.376C215.602 211.55 214.121 210.069 212.293 210.069Z" fill="#67E2EF"/>
<path d="M233.541 206.769C233.541 208.595 235.022 210.076 236.847 210.076C238.675 210.076 240.155 208.595 240.155 206.769C240.155 204.943 238.675 203.462 236.847 203.462C235.021 203.462 233.541 204.943 233.541 206.769Z" fill="#67E2EF"/>
<path d="M237.736 231.805C237.736 233.632 239.216 235.113 241.041 235.113C242.869 235.113 244.349 233.633 244.349 231.805C244.349 229.98 242.869 228.498 241.041 228.498C239.217 228.498 237.736 229.98 237.736 231.805Z" fill="#67E2EF"/>
<path d="M225.19 269.137C223.365 269.137 221.885 270.617 221.885 272.443C221.885 274.27 223.365 275.75 225.19 275.75C227.018 275.75 228.499 274.271 228.499 272.443C228.499 270.618 227.019 269.137 225.19 269.137Z" fill="#67E2EF"/>
<path d="M237.236 261.293C235.411 261.293 233.93 262.773 233.93 264.599C233.93 266.426 235.411 267.906 237.236 267.906C239.064 267.906 240.545 266.426 240.545 264.599C240.545 262.774 239.064 261.293 237.236 261.293Z" fill="#67E2EF"/>
<path d="M166.178 260.245C164.353 260.245 162.872 261.725 162.872 263.551C162.872 265.378 164.353 266.858 166.178 266.858C168.005 266.858 169.485 265.378 169.485 263.551C169.485 261.725 168.005 260.245 166.178 260.245Z" fill="#67E2EF"/>
<path d="M189.79 308.692C187.965 308.692 186.484 310.172 186.484 311.999C186.484 313.825 187.965 315.306 189.79 315.306C191.617 315.306 193.098 313.826 193.098 311.999C193.098 310.172 191.617 308.692 189.79 308.692Z" fill="#67E2EF"/>
<path d="M220.561 306.147C218.736 306.147 217.256 307.627 217.256 309.453C217.256 311.281 218.736 312.761 220.561 312.761C222.389 312.761 223.869 311.282 223.869 309.453C223.869 307.627 222.389 306.147 220.561 306.147Z" fill="#67E2EF"/>
<path d="M242.964 296.8C241.138 296.8 239.658 298.281 239.658 300.107C239.658 301.933 241.138 303.414 242.964 303.414C244.792 303.414 246.273 301.934 246.273 300.107C246.273 298.282 244.792 296.8 242.964 296.8Z" fill="#67E2EF"/>
<path d="M233.93 321.358C235.758 321.358 237.238 319.879 237.238 318.051C237.238 316.225 235.758 314.744 233.93 314.744C232.105 314.744 230.624 316.224 230.624 318.051C230.624 319.878 232.104 321.358 233.93 321.358Z" fill="#67E2EF"/>
<path d="M234.744 343.905C232.919 343.905 231.439 345.387 231.439 347.212C231.439 349.038 232.919 350.52 234.744 350.52C236.572 350.52 238.052 349.038 238.052 347.212C238.052 345.387 236.572 343.905 234.744 343.905Z" fill="#67E2EF"/>
<path d="M249.531 107.635C249.613 107.635 249.692 107.617 249.773 107.61C249.854 107.617 249.932 107.635 250.015 107.635C251.842 107.635 253.323 106.155 253.323 104.329C253.323 102.502 251.842 101.021 250.015 101.021C249.932 101.021 249.855 101.04 249.773 101.045C249.692 101.04 249.614 101.021 249.531 101.021C247.704 101.021 246.223 102.502 246.223 104.329C246.224 106.154 247.704 107.635 249.531 107.635Z" fill="#67E2EF"/>
<path d="M286.564 109.345C286.564 107.519 285.084 106.039 283.257 106.039C281.43 106.039 279.948 107.519 279.948 109.345C279.948 111.171 281.429 112.653 283.257 112.653C285.083 112.652 286.564 111.171 286.564 109.345Z" fill="#67E2EF"/>
<path d="M249.532 170.462C249.615 170.462 249.692 170.443 249.773 170.437C249.854 170.443 249.932 170.462 250.015 170.462C251.842 170.462 253.323 168.982 253.323 167.155C253.323 165.329 251.842 163.848 250.015 163.848C249.932 163.848 249.855 163.867 249.773 163.872C249.692 163.867 249.614 163.848 249.532 163.848C247.704 163.848 246.224 165.328 246.224 167.155C246.224 168.981 247.704 170.462 249.532 170.462Z" fill="#67E2EF"/>
<path d="M322.443 127.194C320.616 127.194 319.135 128.675 319.135 130.501C319.135 132.327 320.615 133.808 322.443 133.808C324.268 133.808 325.749 132.327 325.749 130.501C325.749 128.675 324.268 127.194 322.443 127.194Z" fill="#67E2EF"/>
<path d="M264.614 145.689C266.44 145.689 267.922 144.209 267.922 142.381C267.922 140.556 266.441 139.075 264.614 139.075C262.787 139.075 261.307 140.555 261.307 142.381C261.307 144.209 262.788 145.689 264.614 145.689Z" fill="#67E2EF"/>
<path d="M303.744 163.849C301.918 163.849 300.436 165.329 300.436 167.156C300.436 168.982 301.917 170.463 303.744 170.463C305.571 170.463 307.05 168.983 307.05 167.156C307.049 165.329 305.57 163.849 303.744 163.849Z" fill="#67E2EF"/>
<path d="M337.988 199.358C336.159 199.358 334.679 200.838 334.679 202.664C334.679 204.49 336.159 205.971 337.988 205.971C339.811 205.971 341.293 204.49 341.293 202.664C341.293 200.838 339.811 199.358 337.988 199.358Z" fill="#67E2EF"/>
<path d="M288.561 191.813C286.734 191.813 285.253 193.293 285.253 195.12C285.253 196.945 286.733 198.426 288.561 198.426C290.386 198.426 291.867 196.945 291.867 195.12C291.867 193.294 290.386 191.813 288.561 191.813Z" fill="#67E2EF"/>
<path d="M311.098 201.844C309.27 201.844 307.789 203.324 307.789 205.151C307.789 206.977 309.269 208.458 311.098 208.458C312.923 208.458 314.405 206.978 314.405 205.151C314.405 203.325 312.923 201.844 311.098 201.844Z" fill="#67E2EF"/>
<path d="M287.253 210.069C285.425 210.069 283.944 211.549 283.944 213.376C283.944 215.202 285.424 216.682 287.253 216.682C289.078 216.682 290.559 215.202 290.559 213.376C290.559 211.55 289.079 210.069 287.253 210.069Z" fill="#67E2EF"/>
<path d="M262.701 210.076C264.525 210.076 266.006 208.595 266.006 206.769C266.006 204.943 264.526 203.462 262.701 203.462C260.873 203.462 259.391 204.943 259.391 206.769C259.391 208.595 260.873 210.076 262.701 210.076Z" fill="#67E2EF"/>
<path d="M249.795 216.038C249.787 216.038 249.78 216.041 249.773 216.041C249.766 216.041 249.758 216.038 249.75 216.038C247.925 216.038 246.444 217.518 246.444 219.345C246.444 221.172 247.924 222.652 249.75 222.652C249.758 222.652 249.766 222.649 249.773 222.649C249.781 222.649 249.788 222.652 249.795 222.652C251.621 222.652 253.102 221.171 253.102 219.345C253.102 217.519 251.622 216.038 249.795 216.038Z" fill="#67E2EF"/>
<path d="M258.504 235.113C260.329 235.113 261.81 233.633 261.81 231.805C261.81 229.98 260.33 228.498 258.504 228.498C256.676 228.498 255.196 229.979 255.196 231.805C255.196 233.632 256.676 235.113 258.504 235.113Z" fill="#67E2EF"/>
<path d="M277.662 272.443C277.662 270.618 276.182 269.137 274.355 269.137C272.528 269.137 271.047 270.617 271.047 272.443C271.047 274.27 272.527 275.75 274.355 275.75C276.181 275.749 277.662 274.27 277.662 272.443Z" fill="#67E2EF"/>
<path d="M265.616 264.599C265.616 262.774 264.134 261.293 262.31 261.293C260.482 261.293 259.001 262.773 259.001 264.599C259.001 266.426 260.482 267.906 262.31 267.906C264.134 267.906 265.616 266.426 265.616 264.599Z" fill="#67E2EF"/>
<path d="M333.368 260.245C331.541 260.245 330.06 261.725 330.06 263.551C330.06 265.378 331.54 266.858 333.368 266.858C335.193 266.858 336.675 265.378 336.675 263.551C336.674 261.725 335.193 260.245 333.368 260.245Z" fill="#67E2EF"/>
<path d="M309.757 308.692C307.929 308.692 306.448 310.172 306.448 311.999C306.448 313.825 307.928 315.306 309.757 315.306C311.583 315.306 313.063 313.826 313.063 311.999C313.063 310.172 311.583 308.692 309.757 308.692Z" fill="#67E2EF"/>
<path d="M278.985 306.147C277.158 306.147 275.677 307.627 275.677 309.453C275.677 311.281 277.157 312.761 278.985 312.761C280.811 312.761 282.291 311.282 282.291 309.453C282.291 307.627 280.811 306.147 278.985 306.147Z" fill="#67E2EF"/>
<path d="M256.582 296.8C254.755 296.8 253.275 298.281 253.275 300.107C253.275 301.933 254.754 303.414 256.582 303.414C258.407 303.414 259.888 301.934 259.888 300.107C259.887 298.282 258.407 296.8 256.582 296.8Z" fill="#67E2EF"/>
<path d="M265.617 314.745C263.79 314.745 262.309 316.225 262.309 318.052C262.309 319.879 263.789 321.359 265.617 321.359C267.441 321.359 268.922 319.88 268.922 318.052C268.921 316.225 267.441 314.745 265.617 314.745Z" fill="#67E2EF"/>
<path d="M264.802 343.905C262.974 343.905 261.494 345.387 261.494 347.212C261.494 349.038 262.974 350.52 264.802 350.52C266.627 350.52 268.108 349.038 268.108 347.212C268.108 345.387 266.627 343.905 264.802 343.905Z" fill="#67E2EF"/>
<path d="M72.9911 225.77H78.4031C78.4031 320.264 155.278 397.14 249.773 397.14C344.266 397.14 421.143 320.264 421.143 225.77C421.143 131.276 344.266 54.3998 249.773 54.3998V48.9878C347.25 48.9878 426.554 128.292 426.554 225.77C426.554 323.248 347.25 402.551 249.773 402.551C152.295 402.551 72.9911 323.248 72.9911 225.77Z" fill="url(#paint0_linear_2402_228)"/>
<path d="M362.655 338.655C425 276.31 425 175.23 362.655 112.885C300.31 50.5403 199.23 50.5403 136.885 112.885C74.5403 175.23 74.5403 276.31 136.885 338.655C199.23 401 300.31 401 362.655 338.655Z" stroke="#67E2EF" stroke-miterlimit="10" stroke-dasharray="12.09 12.09"/>
<path d="M225.192 274.227L161.56 202.908" stroke="#67E2EF" stroke-width="1.5" stroke-miterlimit="10"/>
<path d="M188.449 312.76L211.273 214.227" stroke="#67E2EF" stroke-width="1.5" stroke-miterlimit="10"/>
<path d="M265.1 142.382L289.046 195.805" stroke="#67E2EF" stroke-width="1.5" stroke-miterlimit="10"/>
<path d="M287.737 213.376L309.48 311.999" stroke="#67E2EF" stroke-width="1.5" stroke-miterlimit="10"/>
<path d="M338.472 202.908L274.839 272.443" stroke="#67E2EF" stroke-width="1.5" stroke-miterlimit="10"/>
<path d="M225.192 282.911L243.137 300.107" stroke="#67E2EF" stroke-width="1.5" stroke-miterlimit="10"/>
<path d="M274.839 282.911L256.895 300.107" stroke="#67E2EF" stroke-width="1.5" stroke-miterlimit="10"/>
<path d="M96.2581 37.5387H63.4051H56.0211V44.9227V77.7757H63.4051V44.9227H96.2581V37.5387Z" fill="#67E2EF"/>
<path d="M403.287 37.5387H436.14H443.526V44.9227V77.7757H436.14V44.9227H403.287V37.5387Z" fill="#67E2EF"/>
<path d="M403.288 414.002H436.14H443.526V406.617V373.763H436.14V406.617H403.288V414.002Z" fill="#67E2EF"/>
<path d="M96.2591 414.002H63.4051H56.0211V406.617V373.763H63.4051V406.617H96.2591V414.002Z" fill="#67E2EF"/>
<path opacity="0.2" d="M442.899 39.0367H56.6472V245.726H442.899V39.0367Z" fill="#67E2EF"/>
<defs>
<linearGradient id="paint0_linear_2402_228" x1="249.773" y1="48.988" x2="249.773" y2="402.551" gradientUnits="userSpaceOnUse">
<stop stop-color="#67E2EF"/>
<stop offset="1" stop-color="#A0E7EF" stop-opacity="0.3"/>
</linearGradient>
</defs>
</svg>
